<svg xmlns:xlink="http://www.w3.org/1999/xlink" width="642" viewBox="0 0 642 748" height="748" xmlns="http://www.w3.org/2000/svg">
    <style type="text/css"><![CDATA[
.st1 {fill:#000000;font-family:Arial;font-size:10pt}
.st3 {fill:#303030;font-family:Arial;font-size:10pt}
.st6 {fill:#303030;font-family:Arial;font-size:14pt}
.st2 {fill:#ffffff}
.st5 {font-family:MS Shell Dlg 2}
.st9 {font-style:italic;text-decoration:underline}
.st8 {font-style:italic}
.st7 {font-weight:bold}
.st4 {text-decoration:underline}
]]></style>
    <defs>
        <linearGradient x2="0%" id="lg1" x1="0%" y2="100%" y1="0%">
            <stop stop-color="#fafbfd" offset="0"/>
            <stop stop-color="#e8eff8" offset="1"/>
        </linearGradient>
    </defs>
    <g transform="translate(-162,-774)">
        <g id="table1" transform="translate(162,1027.3)">
            <g>
                <path fill="#3498db" stroke="#2d85c1" d="M0,0L223,0L223,28.4L0,28.4L0,0z"/>
                <text class="st1">
                    <tspan y="18.2" class="st2" x="92.2">TNews</tspan>
                </text>
            </g>
            <g>
                <path fill="#ffffff" stroke="#2d85c1" d="M0,28.4L223,28.4L223,136.8L0,136.8L0,28.4z"/>
                <text class="st3">
                    <tspan y="46.6" class="st4" x="11.4">id </tspan>
                    <tspan y="62.6" x="11.4">title [UNIQUE, NOT NULL]</tspan>
                    <tspan y="78.6" x="11.4">description [NOT NULL]</tspan>
                    <tspan y="94.6" x="11.4">date [NOT NULL]</tspan>
                </text>
            </g>
        </g>
        <g id="table2" transform="translate(604,1041.2)">
            <g>
                <path fill="#3498db" stroke="#2d85c1" d="M0,0L199,0L199,30.7L0,30.7L0,0z"/>
                <text class="st1">
                    <tspan y="19.4" class="st2" x="82.6">TUser</tspan>
                </text>
            </g>
            <g>
                <path fill="#ffffff" stroke="#2d85c1" d="M0,30.7L199,30.7L199,109L0,109L0,30.7z"/>
                <text class="st3">
                    <tspan y="48.9" class="st4" x="11.4">login</tspan>
                    <tspan y="64.9" x="11.4">password [NOT NULL]</tspan>
                    <tspan y="80.9" x="11.4">email [UNIQUE]</tspan>
                    <tspan y="96.9" x="11.4">is_admin [BOOLEAN]</tspan>
                </text>
            </g>
        </g>
        <g id="table3" transform="translate(402,1265.81)">
            <g>
                <path fill="#3498db" stroke="#2d85c1" d="M0,0L155,0L155,30L0,30L0,0z"/>
                <text class="st1">
                    <tspan y="19" class="st2" x="46.6">TComment</tspan>
                </text>
            </g>
            <g>
                <path fill="#ffffff" stroke="#2d85c1" d="M0,30L155,30L155,106.4L0,106.4L0,30z"/>
                <text class="st3">
                    <tspan y="48.2" class="st4" x="11.4">id</tspan>
                    <tspan y="64.2" x="11.4">date [NOT NULL]</tspan>
                    <tspan y="80.2" x="11.4">content [NOT NULL]</tspan>
                </text>
            </g>
        </g>
        <g id="shape4" transform="matrix(0,1,-1,0,273.5,1164.1)">
            <path fill="none" stroke="#1e768c" d="M0,0L122.9,0"/>
            <path stroke-width="1" stroke-linecap="round" stroke-linejoin="round" fill="none" stroke="#1e768c" d="M128.9,0C128.9,1.7,127.6,3,125.9,3C124.2,3,122.9,1.7,122.9,0C122.9,-1.7,124.2,-3,125.9,-3C127.6,-3,128.9,-1.7,128.9,0"/>
            <rect fill="#fefefe" y="-8" width="18.8" height="16" x="56.3" transform="matrix(0,-1,1,0,62.7,62.9)"/>
            <text class="st3" transform="matrix(0,-1,1,0,62.7,62.9)">
                <tspan y="4" x="56.1">0,n</tspan>
            </text>
        </g>
        <g id="shape5" transform="matrix(-1,0,0,-1,402,1319)">
            <path fill="none" stroke="#1e768c" d="M0,0L97,0"/>
            <path stroke-width="1" stroke-linecap="round" stroke-linejoin="round" fill="none" stroke="#1e768c" d="M103,0C103,1.7,101.7,3,100,3C98.3,3,97,1.7,97,0C97,-1.7,98.3,-3,100,-3C101.7,-3,103,-1.7,103,0"/>
            <rect fill="#fefefe" y="-9.2" width="18.8" height="16" x="46" transform="matrix(-1,-0,0,-1,105.2,-2.4)"/>
            <text class="st3" transform="matrix(-1,-0,0,-1,105.2,-2.4)">
                <tspan y="2.8" x="45.8">1,1</tspan>
            </text>
        </g>
        <g id="shape6" transform="translate(557,1319.01)">
            <path fill="none" stroke="#236ea1" d="M0,0L54.5,0L109,-0.5"/>
            <rect fill="#ffffff" y="-9.3" width="18.8" height="16" x="27.3"/>
            <text class="st3">
                <tspan y="2.7" x="27.2">1,1</tspan>
            </text>
        </g>
        <g id="shape7" transform="translate(703.5,1281.01)">
            <path fill="none" stroke="#236ea1" d="M0,0L0,-130.8"/>
            <rect fill="#ffffff" y="-101.8" width="18.8" height="16" x="-6.2"/>
            <text class="st3">
                <tspan y="-89.8" x="-6.3">0,n</tspan>
            </text>
        </g>
        <g id="table8" transform="translate(443,854.7)">
            <g>
                <path fill="#3498db" stroke="#2d85c1" d="M0,0L114,0L114,30L0,30L0,0z"/>
                <text class="st1">
                    <tspan y="19" class="st2" x="33">TPicture</tspan>
                </text>
            </g>
            <g>
                <path fill="#ffffff" stroke="#2d85c1" d="M0,30L114,30L114,91.2L0,91.2L0,30z"/>
                <text class="st3">
                    <tspan y="48.2" class="st4" x="11.4">id</tspan>
                    <tspan y="64.2" x="11.4">uri [NOT NULL]</tspan>
                    <tspan y="81" class="st5" x="11.4">alt [NOT NULL]</tspan>
                </text>
            </g>
        </g>
        <g id="shape9" transform="translate(216.5,862.3)">
            <path fill="#000000" fill-opacity="0.08" d="M2,40C2,19,27.5,2,59,2C90.5,2,116,19,116,40C116,61,90.5,78,59,78C27.5,78,2,61,2,40z"/>
            <path fill="url(#lg1)" d="M0,38C0,17,25.5,0,57,0C88.5,0,114,17,114,38C114,59,88.5,76,57,76C25.5,76,0,59,0,38z"/>
            <path fill="none" stroke="#236ea1" d="M0,38C0,17,25.5,0,57,0C88.5,0,114,17,114,38C114,59,88.5,76,57,76C25.5,76,0,59,0,38zM0,38L114,38"/>
            <text class="st3">
                <tspan y="23" x="36">Include</tspan>
            </text>
        </g>
        <g id="shape10" transform="translate(273.5,938.3)">
            <path fill="none" stroke="#236ea1" d="M0,0L0,89"/>
            <rect fill="#ffffff" y="61" width="18.8" height="16" x="-6.7"/>
            <text class="st3">
                <tspan y="73" x="-6.8">1,n</tspan>
            </text>
        </g>
        <g id="shape11" transform="translate(443,899.9)">
            <path fill="none" stroke="#236ea1" d="M0,0L-61,0L-112.5,.4"/>
            <rect fill="#ffffff" y="-8" width="18.8" height="16" x="-26.7"/>
            <text class="st3">
                <tspan y="4" x="-26.8">0,n</tspan>
            </text>
        </g>
        <g id="shape12" transform="translate(703.5,937.3)">
            <path fill="none" stroke="#236ea1" d="M0,0L0,103.9"/>
            <rect fill="#ffffff" y="75.9" width="18.8" height="16" x="-6.7"/>
            <text class="st3">
                <tspan y="87.9" x="-6.8">1,1</tspan>
            </text>
        </g>
        <g id="shape13" transform="translate(269,1379.7)">
            <text class="st6">
                <tspan y="20.8" class="st7" x="3.2">MLD</tspan>
                <tspan> </tspan>
                <tspan y="43.2" x="3.2">TNews(</tspan>
                <tspan class="st4">id</tspan>
                <tspan>, title, description, date, </tspan>
                <tspan class="st8">#id_user</tspan>
                <tspan>); </tspan>
                <tspan y="66.4" x="3.2">TUser(</tspan>
                <tspan class="st4">id</tspan>
                <tspan>, login, password, email, is_admin, </tspan>
                <tspan class="st8">#id_picture</tspan>
                <tspan>); </tspan>
                <tspan y="88.8" x="3.2">TPicture(</tspan>
                <tspan class="st4">id</tspan>
                <tspan>, uri, alt);</tspan>
                <tspan y="111.2" x="3.2">TNewsIncludePicture(</tspan>
                <tspan class="st9">#id_news</tspan>
                <tspan class="st4">, </tspan>
                <tspan class="st9">#id_picture</tspan>
                <tspan>); </tspan>
                <tspan y="134.4" x="3.2">TComment(</tspan>
                <tspan class="st4">id</tspan>
                <tspan>, date, content, </tspan>
                <tspan class="st8">#id_news</tspan>
                <tspan>,</tspan>
                <tspan class="st8"> #id_user</tspan>
                <tspan>);</tspan>
            </text>
        </g>
        <g id="shape14" transform="translate(557,899.9)">
            <path fill="none" stroke="#1e768c" d="M0,0L120,0"/>
            <path stroke-width="1" stroke-linecap="round" stroke-linejoin="round" fill="none" stroke="#1e768c" d="M126,0C126,1.7,124.7,3,123,3C121.3,3,120,1.7,120,0C120,-1.7,121.3,-3,123,-3C124.7,-3,126,-1.7,126,0"/>
            <rect fill="#fefefe" y="-9.9" width="18.8" height="16" x="69.3"/>
            <text class="st3">
                <tspan y="2.1" x="69.2">0,1</tspan>
            </text>
        </g>
        <g id="shape15" transform="translate(578.25,775)">
            <path fill="#000000" fill-opacity="0.08" d="M205.5,78L205.5,2L2,2L2,78L205.5,78z"/>
            <path fill="url(#lg1)" stroke="#236ea1" d="M203.5,76L203.5,0L0,0L0,76L203.5,76z"/>
            <text class="st3">
                <tspan y="33.6" x="30.6">'alt' is by default equal to </tspan>
                <tspan y="50.4" x="33.9">"profile picture of </tspan>
                <tspan class="st8">login</tspan>
                <tspan>"</tspan>
            </text>
        </g>
        <g id="shape16" transform="translate(374,1095.7)">
            <path fill="none" stroke="#1e768c" d="M3,0L80,0"/>
            <path stroke-width="1" stroke-linecap="round" stroke-linejoin="round" fill="none" stroke="#1e768c" d="M-3,0C-3,-1.7,-1.7,-3,0,-3C1.7,-3,3,-1.7,3,0C3,1.7,1.7,3,0,3C-1.7,3,-3,1.7,-3,0"/>
            <path stroke-width="1" stroke-linecap="round" stroke-linejoin="round" fill="none" stroke="#1e768c" d="M86,0C86,1.7,84.7,3,83,3C81.3,3,80,1.7,80,0C80,-1.7,81.3,-3,83,-3C84.7,-3,86,-1.7,86,0"/>
            <rect fill="#fefefe" y="-8" width="18.8" height="16" x="24.3"/>
            <text class="st3">
                <tspan y="4" x="24.2">1,1</tspan>
            </text>
        </g>
        <g id="shape17" transform="matrix(-1,0,0,-1,614,1095.7)">
            <path fill="none" stroke="#1e768c" d="M3,0L91,0"/>
            <path stroke-width="1" stroke-linecap="round" stroke-linejoin="round" fill="none" stroke="#1e768c" d="M-3,0C-3,-1.7,-1.7,-3,0,-3C1.7,-3,3,-1.7,3,0C3,1.7,1.7,3,0,3C-1.7,3,-3,1.7,-3,0"/>
            <path stroke-width="1" stroke-linecap="round" stroke-linejoin="round" fill="none" stroke="#1e768c" d="M97,0C97,1.7,95.7,3,94,3C92.3,3,91,1.7,91,0C91,-1.7,92.3,-3,94,-3C95.7,-3,97,-1.7,97,0"/>
            <rect fill="#fefefe" y="-8" width="18.8" height="16" x="40.3" transform="matrix(-1,-0,0,-1,94,0)"/>
            <text class="st3" transform="matrix(-1,-0,0,-1,94,0)">
                <tspan y="4" x="40.2">0,n</tspan>
            </text>
        </g>
        <g id="shape18" transform="translate(457,1058.2)">
            <path fill="#000000" fill-opacity="0.08" d="M2,39.5C2,18.8,18.8,2,39.5,2C60.2,2,77,18.8,77,39.5C77,60.2,60.2,77,39.5,77C18.8,77,2,60.2,2,39.5z"/>
            <path fill="url(#lg1)" stroke="#236ea1" d="M0,37.5C0,16.8,16.8,0,37.5,0C58.2,0,75,16.8,75,37.5C75,58.2,58.2,75,37.5,75C16.8,75,0,58.2,0,37.5z"/>
            <text class="st3">
                <tspan y="33.5" x="11.2">Is written </tspan>
                <tspan y="49.5" x="30.4">by</tspan>
            </text>
        </g>
        <g id="shape19" transform="translate(236,1281.01)">
            <path fill="#000000" fill-opacity="0.08" d="M2,39.5C2,18.8,18.8,2,39.5,2C60.2,2,77,18.8,77,39.5C77,60.2,60.2,77,39.5,77C18.8,77,2,60.2,2,39.5z"/>
            <path fill="url(#lg1)" stroke="#236ea1" d="M0,37.5C0,16.8,16.8,0,37.5,0C58.2,0,75,16.8,75,37.5C75,58.2,58.2,75,37.5,75C16.8,75,0,58.2,0,37.5z"/>
            <text class="st3">
                <tspan y="41.5" x="23.2">Have</tspan>
            </text>
        </g>
        <g id="shape20" transform="translate(666,1281.01)">
            <path fill="#000000" fill-opacity="0.08" d="M2,39.5C2,18.8,18.8,2,39.5,2C60.2,2,77,18.8,77,39.5C77,60.2,60.2,77,39.5,77C18.8,77,2,60.2,2,39.5z"/>
            <path fill="url(#lg1)" stroke="#236ea1" d="M0,37.5C0,16.8,16.8,0,37.5,0C58.2,0,75,16.8,75,37.5C75,58.2,58.2,75,37.5,75C16.8,75,0,58.2,0,37.5z"/>
            <text class="st3">
                <tspan y="33.5" x="23.2">Have </tspan>
                <tspan y="49.5" x="18.4">posted</tspan>
            </text>
        </g>
        <g id="shape21" transform="translate(666,862.3)">
            <path fill="#000000" fill-opacity="0.08" d="M2,39.5C2,18.8,18.8,2,39.5,2C60.2,2,77,18.8,77,39.5C77,60.2,60.2,77,39.5,77C18.8,77,2,60.2,2,39.5z"/>
            <path fill="url(#lg1)" stroke="#236ea1" d="M0,37.5C0,16.8,16.8,0,37.5,0C58.2,0,75,16.8,75,37.5C75,58.2,58.2,75,37.5,75C16.8,75,0,58.2,0,37.5z"/>
            <text class="st3">
                <tspan y="33.5" x="23.2">Have </tspan>
                <tspan y="49.5" x="18.4">posted</tspan>
            </text>
        </g>
    </g>
</svg>
