<svg xmlns="http://www.w3.org/2000/svg" viewBox="0 0 642 719" width="642" xmlns:xlink="http://www.w3.org/1999/xlink" height="719">
    <style type="text/css"><![CDATA[
.st1 {fill:#000000;font-family:Arial;font-size:10pt}
.st3 {fill:#303030;font-family:Arial;font-size:10pt}
.st6 {fill:#303030;font-family:Arial;font-size:14pt}
.st2 {fill:#ffffff}
.st5 {font-family:MS Shell Dlg 2}
.st9 {font-style:italic;text-decoration:underline}
.st8 {font-style:italic}
.st7 {font-weight:bold}
.st4 {text-decoration:underline}
]]></style>
    <defs>
        <linearGradient id="lg1" y1="0%" x2="0%" y2="100%" x1="0%">
            <stop offset="0" stop-color="#fafbfd"/>
            <stop offset="1" stop-color="#e8eff8"/>
        </linearGradient>
    </defs>
    <g transform="translate(-162,-8)">
        <g id="table1" transform="translate(162,233.6)">
            <g>
                <path stroke="#2d85c1" d="M0,0L223,0L223,28.4L0,28.4L0,0z" fill="#3498db"/>
                <text class="st1">
                    <tspan x="92.2" class="st2" y="18.2">TNews</tspan>
                </text>
            </g>
            <g>
                <path stroke="#2d85c1" d="M0,28.4L223,28.4L223,136.8L0,136.8L0,28.4z" fill="#ffffff"/>
                <text class="st3">
                    <tspan x="11.4" class="st4" y="46.6">id </tspan>
                    <tspan x="11.4" y="62.6">title [UNIQUE, NOT NULL]</tspan>
                    <tspan x="11.4" y="78.6">description [NOT NULL]</tspan>
                    <tspan x="11.4" y="94.6">date [NOT NULL]</tspan>
                </text>
            </g>
        </g>
        <g id="table2" transform="translate(604,274)">
            <g>
                <path stroke="#2d85c1" d="M0,0L199,0L199,30.7L0,30.7L0,0z" fill="#3498db"/>
                <text class="st1">
                    <tspan x="82.6" class="st2" y="19.4">TUser</tspan>
                </text>
            </g>
            <g>
                <path stroke="#2d85c1" d="M0,30.7L199,30.7L199,109L0,109L0,30.7z" fill="#ffffff"/>
                <text class="st3">
                    <tspan x="11.4" class="st4" y="48.9">login</tspan>
                    <tspan x="11.4" y="64.9">password [NOT NULL]</tspan>
                    <tspan x="11.4" y="80.9">email [UNIQUE]</tspan>
                </text>
            </g>
        </g>
        <g id="table3" transform="translate(402,472.1)">
            <g>
                <path stroke="#2d85c1" d="M0,0L155,0L155,30L0,30L0,0z" fill="#3498db"/>
                <text class="st1">
                    <tspan x="46.6" class="st2" y="19">TComment</tspan>
                </text>
            </g>
            <g>
                <path stroke="#2d85c1" d="M0,30L155,30L155,106.4L0,106.4L0,30z" fill="#ffffff"/>
                <text class="st3">
                    <tspan x="11.4" class="st4" y="48.2">id</tspan>
                    <tspan x="11.4" y="64.2">date [NOT NULL]</tspan>
                    <tspan x="11.4" y="80.2">content [NOT NULL]</tspan>
                </text>
            </g>
        </g>
        <g id="shape4" transform="translate(216.5,487.3)">
            <path fill-opacity="0.08" d="M2,40C2,19,27.5,2,59,2C90.5,2,116,19,116,40C116,61,90.5,78,59,78C27.5,78,2,61,2,40z" fill="#000000"/>
            <path d="M0,38C0,17,25.5,0,57,0C88.5,0,114,17,114,38C114,59,88.5,76,57,76C25.5,76,0,59,0,38z" fill="url(#lg1)"/>
            <path stroke="#236ea1" d="M0,38C0,17,25.5,0,57,0C88.5,0,114,17,114,38C114,59,88.5,76,57,76C25.5,76,0,59,0,38zM0,38L114,38" fill="none"/>
            <text class="st3">
                <tspan x="42.4" y="23">Have</tspan>
            </text>
        </g>
        <g id="shape5" transform="matrix(0,1,-1,0,273.5,370.4)">
            <path stroke="#1e768c" d="M0,0L113.9,0" fill="none"/>
            <path stroke-width="1" stroke-linejoin="round" stroke-linecap="round" stroke="#1e768c" d="M119.9,0C119.9,1.7,118.6,3,116.9,3C115.2,3,113.9,1.7,113.9,0C113.9,-1.7,115.2,-3,116.9,-3C118.6,-3,119.9,-1.7,119.9,0" fill="none"/>
            <rect x="51.8" y="-8" width="18.8" transform="matrix(0,-1,1,0,58.5,58.5)" height="16" fill="#fefefe"/>
            <text class="st3" transform="matrix(0,-1,1,0,58.5,58.5)">
                <tspan x="51.7" y="4">0,n</tspan>
            </text>
        </g>
        <g id="shape6" transform="translate(330.5,525.3)">
            <path stroke="#1e768c" d="M0,0L68.5,0" fill="none"/>
            <path stroke-width="1" stroke-linejoin="round" stroke-linecap="round" stroke="#1e768c" d="M74.5,0C74.5,1.7,73.2,3,71.5,3C69.8,3,68.5,1.7,68.5,0C68.5,-1.7,69.8,-3,71.5,-3C73.2,-3,74.5,-1.7,74.5,0" fill="none"/>
            <rect x="46" y="-9.2" width="18.8" height="16" fill="#fefefe"/>
            <text class="st3">
                <tspan x="45.8" y="2.8">1,1</tspan>
            </text>
        </g>
        <g id="shape7" transform="translate(557,525.3)">
            <path stroke="#236ea1" d="M0,0L89.5,0" fill="none"/>
            <rect x="13.3" y="-8" width="18.8" height="16" fill="#ffffff"/>
            <text class="st3">
                <tspan x="13.2" y="4">1,1</tspan>
            </text>
        </g>
        <g id="shape8" transform="translate(703.5,487.31)">
            <path stroke="#236ea1" d="M0,0L0,-104.3" fill="none"/>
            <rect x="-6.2" y="-75.3" width="18.8" height="16" fill="#ffffff"/>
            <text class="st3">
                <tspan x="-6.3" y="-63.3">0,n</tspan>
            </text>
        </g>
        <g id="table9" transform="translate(443,61)">
            <g>
                <path stroke="#2d85c1" d="M0,0L114,0L114,30L0,30L0,0z" fill="#3498db"/>
                <text class="st1">
                    <tspan x="33" class="st2" y="19">TPicture</tspan>
                </text>
            </g>
            <g>
                <path stroke="#2d85c1" d="M0,30L114,30L114,91.2L0,91.2L0,30z" fill="#ffffff"/>
                <text class="st3">
                    <tspan x="11.4" class="st4" y="48.2">id</tspan>
                    <tspan x="11.4" y="64.2">uri [NOT NULL]</tspan>
                    <tspan x="11.4" class="st5" y="81">alt [NOT NULL]</tspan>
                </text>
            </g>
        </g>
        <g id="shape10" transform="translate(216.5,68.6)">
            <path fill-opacity="0.08" d="M2,40C2,19,27.5,2,59,2C90.5,2,116,19,116,40C116,61,90.5,78,59,78C27.5,78,2,61,2,40z" fill="#000000"/>
            <path d="M0,38C0,17,25.5,0,57,0C88.5,0,114,17,114,38C114,59,88.5,76,57,76C25.5,76,0,59,0,38z" fill="url(#lg1)"/>
            <path stroke="#236ea1" d="M0,38C0,17,25.5,0,57,0C88.5,0,114,17,114,38C114,59,88.5,76,57,76C25.5,76,0,59,0,38zM0,38L114,38" fill="none"/>
            <text class="st3">
                <tspan x="36" y="23">Include</tspan>
            </text>
        </g>
        <g id="shape11" transform="translate(273.5,144.6)">
            <path stroke="#236ea1" d="M0,0L0,89" fill="none"/>
            <rect x="-6.7" y="61" width="18.8" height="16" fill="#ffffff"/>
            <text class="st3">
                <tspan x="-6.8" y="73">1,n</tspan>
            </text>
        </g>
        <g id="shape12" transform="translate(443,106.2)">
            <path stroke="#236ea1" d="M0,0L-61,0L-112.5,.4" fill="none"/>
            <rect x="-26.7" y="-8" width="18.8" height="16" fill="#ffffff"/>
            <text class="st3">
                <tspan x="-26.8" y="4">0,n</tspan>
            </text>
        </g>
        <g id="shape13" transform="translate(703.5,119.6)">
            <path stroke="#236ea1" d="M0,0L0,154.4" fill="none"/>
            <rect x="-6.7" y="126.4" width="18.8" height="16" fill="#ffffff"/>
            <text class="st3">
                <tspan x="-6.8" y="138.4">1,1</tspan>
            </text>
        </g>
        <g id="shape14" transform="translate(269,586)">
            <text class="st6">
                <tspan x="3.2" class="st7" y="20.8">MLD</tspan>
                <tspan> </tspan>
                <tspan x="3.2" y="42.4">TNews(</tspan>
                <tspan class="st4">id</tspan>
                <tspan>, title, description, date); </tspan>
                <tspan x="3.2" y="64.8">TUser(</tspan>
                <tspan class="st4">id</tspan>
                <tspan>, login, password, email, </tspan>
                <tspan class="st8">#id_profile_picture</tspan>
                <tspan>); </tspan>
                <tspan x="3.2" y="87.2">TPicture(</tspan>
                <tspan class="st4">id</tspan>
                <tspan>, uri, alt);</tspan>
                <tspan x="3.2" y="109.6">TNewsPicture(</tspan>
                <tspan class="st9">#id_news</tspan>
                <tspan class="st4">, </tspan>
                <tspan class="st9">#id_picture</tspan>
                <tspan>); </tspan>
                <tspan x="3.2" y="132.8">TComment(</tspan>
                <tspan class="st4">id</tspan>
                <tspan>, date, content, </tspan>
                <tspan class="st8">#id_news</tspan>
                <tspan>,</tspan>
                <tspan class="st8"> #id_user</tspan>
                <tspan>);</tspan>
            </text>
        </g>
        <g id="shape15" transform="translate(646.5,487.3)">
            <path fill-opacity="0.08" d="M2,40C2,19,27.5,2,59,2C90.5,2,116,19,116,40C116,61,90.5,78,59,78C27.5,78,2,61,2,40z" fill="#000000"/>
            <path d="M0,38C0,17,25.5,0,57,0C88.5,0,114,17,114,38C114,59,88.5,76,57,76C25.5,76,0,59,0,38z" fill="url(#lg1)"/>
            <path stroke="#236ea1" d="M0,38C0,17,25.5,0,57,0C88.5,0,114,17,114,38C114,59,88.5,76,57,76C25.5,76,0,59,0,38zM0,38L114,38" fill="none"/>
            <text class="st3">
                <tspan x="21.6" y="23">Have posted</tspan>
            </text>
        </g>
        <g id="shape16" transform="translate(690.5,93.6)">
            <path fill-opacity="0.08" d="M2,15C2,7.8,7.8,2,15,2C22.2,2,28,7.8,28,15C28,22.2,22.2,28,15,28C7.8,28,2,22.2,2,15z" fill="#000000"/>
            <path stroke="#236ea1" d="M0,13C0,5.8,5.8,0,13,0C20.2,0,26,5.8,26,13C26,20.2,20.2,26,13,26C5.8,26,0,20.2,0,13z" fill="url(#lg1)"/>
        </g>
        <g id="shape17" transform="matrix(-1,-0,0,-1,690.5,106.6)">
            <path stroke="#1e768c" d="M0,0L130.5,0" fill="none"/>
            <path stroke-width="1" stroke-linejoin="round" stroke-linecap="round" stroke="#1e768c" d="M136.5,0C136.5,1.7,135.2,3,133.5,3C131.8,3,130.5,1.7,130.5,0C130.5,-1.7,131.8,-3,133.5,-3C135.2,-3,136.5,-1.7,136.5,0" fill="none"/>
            <rect x="92.8" y="-5.7" width="18.8" transform="matrix(-1,0,-0,-1,199,4.3)" height="16" fill="#fefefe"/>
            <text class="st3" transform="matrix(-1,0,-0,-1,199,4.3)">
                <tspan x="92.7" y="6.3">0,1</tspan>
            </text>
        </g>
        <g id="shape18" transform="translate(591,9)">
            <path fill-opacity="0.08" d="M205.5,78L205.5,2L2,2L2,78L205.5,78z" fill="#000000"/>
            <path stroke="#236ea1" d="M203.5,76L203.5,0L0,0L0,76L203.5,76z" fill="url(#lg1)"/>
            <text class="st3">
                <tspan x="30.6" y="33.6">'alt' is by default equal to </tspan>
                <tspan x="33.9" y="50.4">"profile picture of </tspan>
                <tspan class="st8">login</tspan>
                <tspan>"</tspan>
            </text>
        </g>
    </g>
</svg>
